<?xml version="1.0" encoding="UTF-8"?>
<svg id="Layer_1" data-name="Layer 1" xmlns="http://www.w3.org/2000/svg" viewBox="0 0 1167.01 355.64">
  <defs>
    <style>
      .cls-1 {
        fill: #ffe8e8;
      }

      .cls-2 {
        fill: #e04587;
      }
    </style>
  </defs>
  <g>
    <path class="cls-1" d="M0,113.98v-56.99h22.79v56.99c0,9.5,3.32,17.57,9.97,24.22,6.65,6.65,14.72,9.97,24.22,9.97s17.57-3.32,24.22-9.97c6.65-6.65,9.97-14.72,9.97-24.22v-56.99h22.8v56.99c0,15.79-5.55,29.24-16.65,40.34-11.1,11.1-24.55,16.65-40.34,16.65s-29.24-5.55-40.34-16.65C5.55,143.21,0,129.77,0,113.98Z"/>
    <path class="cls-1" d="M245.94,170.96H109.17v-22.8h136.77c3.21,0,5.9-1.1,8.1-3.29,2.2-2.2,3.29-4.9,3.29-8.1s-1.1-5.91-3.29-8.1c-2.2-2.2-4.9-3.29-8.1-3.29h-45.59c-9.5,0-17.57-3.32-24.22-9.97-6.65-6.65-9.97-14.72-9.97-24.22s3.32-17.57,9.97-24.22c6.65-6.65,14.72-9.97,24.22-9.97h68.39v22.79h-68.39c-3.21,0-5.91,1.1-8.1,3.29-2.2,2.2-3.29,4.9-3.29,8.1s1.1,5.91,3.29,8.1c2.2,2.2,4.9,3.29,8.1,3.29h45.59c9.5,0,17.57,3.33,24.22,9.97,6.65,6.65,9.97,14.72,9.97,24.22s-3.33,17.57-9.97,24.22c-6.65,6.65-14.72,9.97-24.22,9.97Z"/>
    <path class="cls-1" d="M351.9,79.78v275.86h-22.8V79.78h-45.59v-22.79h113.98v22.79h-45.59Z"/>
    <path class="cls-1" d="M432.93,170.96h-22.79V56.99h79.78c9.5,0,17.57,3.33,24.22,9.97,6.65,6.65,9.97,14.72,9.97,24.22s-3.33,17.57-9.97,24.22c-6.65,6.65-14.72,9.97-24.22,9.97h-4.99l50.58,91.18h-22.8l-62.69-113.98h39.89c3.2,0,5.9-1.1,8.1-3.29s3.29-4.9,3.29-8.1-1.1-5.9-3.29-8.1c-2.2-2.2-4.9-3.29-8.1-3.29h-56.99v91.18Z"/>
    <path class="cls-1" d="M588.4,170.96c-15.79,0-29.24-5.55-40.34-16.65-11.1-11.1-16.65-24.55-16.65-40.34s5.55-29.23,16.65-40.34c11.1-11.1,24.55-16.65,40.34-16.65s29.23,5.55,40.34,16.65c11.1,11.1,16.65,24.55,16.65,40.34s-5.55,29.24-16.65,40.34c-11.1,11.1-24.55,16.65-40.34,16.65ZM588.4,148.17c9.5,0,17.57-3.32,24.22-9.97,6.65-6.65,9.97-14.72,9.97-24.22s-3.33-17.57-9.97-24.22c-6.65-6.65-14.72-9.97-24.22-9.97s-17.57,3.33-24.22,9.97c-6.65,6.65-9.97,14.72-9.97,24.22s3.32,17.57,9.97,24.22c6.65,6.65,14.72,9.97,24.22,9.97Z"/>
    <path class="cls-1" d="M681.37,91.18v125.37h-22.8V56.99h22.8l68.39,79.78V0h22.79v170.96h-22.79l-68.39-79.78Z"/>
    <path class="cls-1" d="M778.25,170.96l56.99-119.68,56.99,119.68h-25.64l-31.34-65.54-31.34,65.54h-25.65Z"/>
    <path class="cls-1" d="M920.72,148.17h91.18v22.8h-113.98V56.99h22.8v91.18Z"/>
    <path class="cls-1" d="M1047.34,170.96h-22.8V56.99h22.8v113.98Z"/>
    <path class="cls-1" d="M1053.04,170.96l56.99-119.68,56.99,119.68h-25.64l-31.34-65.54-31.34,65.54h-25.65Z"/>
  </g>
  <polygon class="cls-2" points="1110.03 131.48 1091.14 170.96 1128.91 170.96 1110.03 131.48"/>
  <path class="cls-2" d="M572.13,97.7c-4.56,4.56-6.68,9.73-6.68,16.27s2.12,11.72,6.68,16.27c4.56,4.56,9.73,6.68,16.27,6.68s11.71-2.12,16.27-6.68c4.56-4.56,6.68-9.73,6.68-16.27s-2.12-11.71-6.68-16.27c-4.56-4.56-9.73-6.68-16.27-6.68s-11.71,2.12-16.27,6.68Z"/>
  <path class="cls-2" d="M34.03,113.98c0,6.55,2.12,11.72,6.68,16.27,4.56,4.56,9.73,6.68,16.27,6.68s11.71-2.12,16.27-6.68c4.56-4.56,6.68-9.73,6.68-16.27v-56.99h-45.91v56.99Z"/>
  <g>
    <path class="cls-2" d="M522.3,324.97c-12.68,0-23.47-4.45-32.38-13.37-8.91-8.91-13.37-19.71-13.37-32.38s4.46-23.47,13.37-32.38c8.91-8.91,19.71-13.37,32.38-13.37s23.47,4.46,32.38,13.37c8.91,8.91,13.37,19.71,13.37,32.38s-4.46,23.47-13.37,32.38c-8.91,8.91-19.71,13.37-32.38,13.37ZM522.3,306.66c7.63,0,14.11-2.67,19.45-8.01,5.34-5.34,8.01-11.82,8.01-19.44s-2.67-14.11-8.01-19.44c-5.34-5.34-11.82-8.01-19.45-8.01s-14.11,2.67-19.44,8.01c-5.34,5.34-8.01,11.82-8.01,19.44s2.67,14.11,8.01,19.44c5.34,5.34,11.82,8.01,19.44,8.01Z"/>
    <path class="cls-2" d="M680.75,306.66v18.3h-94.4v-27.45c0-7.62,2.67-14.11,8.01-19.44,5.34-5.34,11.82-8.01,19.45-8.01h36.6c2.57,0,4.74-.88,6.51-2.65,1.76-1.76,2.65-3.93,2.65-6.51s-.88-4.74-2.65-6.51c-1.76-1.76-3.93-2.65-6.51-2.65h-54.9v-18.3h54.9c7.62,0,14.11,2.67,19.45,8.01,5.34,5.34,8.01,11.82,8.01,19.44s-2.67,14.11-8.01,19.44c-5.34,5.34-11.82,8.01-19.45,8.01h-36.6c-2.57,0-4.74.88-6.51,2.64-1.77,1.77-2.65,3.93-2.65,6.51v9.15h76.1Z"/>
    <path class="cls-2" d="M858.09,233.46v18.3h-143v9.15c0,2.57.88,4.74,2.65,6.51,1.76,1.77,3.93,2.65,6.51,2.65h36.6c7.62,0,14.11,2.67,19.45,8.01,5.34,5.34,8.01,11.82,8.01,19.44s-2.67,14.11-8.01,19.44c-5.34,5.34-11.82,8.01-19.45,8.01h-54.9v-18.3h54.9c2.57,0,4.74-.88,6.51-2.64,1.76-1.76,2.65-3.93,2.65-6.51s-.88-4.74-2.65-6.51c-1.76-1.76-3.93-2.64-6.51-2.64h-36.6c-7.63,0-14.11-2.67-19.45-8.01-5.34-5.34-8.01-11.82-8.01-19.44v-27.45h161.3Z"/>
  </g>
  <path class="cls-2" d="M807.52,337.06v18.3h-437.19v-42.7c0-7.62,2.67-14.11,8.01-19.44,5.34-5.34,11.82-8.01,19.44-8.01h36.6c2.57,0,4.74-.88,6.51-2.65s2.64-11.55,2.64-14.12-.88-12.36-2.64-14.12c-1.77-1.76-3.93-2.65-6.51-2.65h-54.9v-18.3h54.9c7.62,0,14.1,2.67,19.44,8.01,5.34,5.34,8.01,19.44,8.01,27.06s-2.67,21.73-8.01,27.06c-5.34,5.34-11.82,8.01-19.44,8.01h-36.6c-2.57,0-4.74.88-6.51,2.64-1.76,1.77-2.65,3.93-2.65,6.51v24.4h418.89Z"/>
</svg>